<?xml version="1.0" standalone="yes"?>
<svg xmlns="http://www.w3.org/2000/svg" width="1016" height="462">
<path style="fill:#150512; stroke:none;" d="M0 0L0 462L1016 462L1016 0L0 0z"/>
<path style="fill:#3e2a25; stroke:none;" d="M484 201L484 237C485.441 233.565 485 229.702 485 226C485 218.52 486.903 207.919 484 201z"/>
<path style="fill:#6f573c; stroke:none;" d="M485.667 201.333C485.222 201.778 486.278 201.722 486.333 201.667C486.778 201.222 485.722 201.278 485.667 201.333z"/>
<path style="fill:#362321; stroke:none;" d="M487.667 201.333C487.222 201.778 488.278 201.722 488.333 201.667C488.778 201.222 487.722 201.278 487.667 201.333z"/>
<path style="fill:#523f31; stroke:none;" d="M570 201C572.613 202.098 575.165 201.993 578 202C575.387 200.902 572.836 201.007 570 201z"/>
<path style="fill:#4d3225; stroke:none;" d="M306 202C307.506 202.683 308.315 202.826 310 203C308.494 202.317 307.685 202.174 306 202z"/>
<path style="fill:#251317; stroke:none;" d="M310 202L310 212C311.346 208.793 311.346 205.207 310 202z"/>
<path style="fill:#93784d; stroke:none;" d="M485 202L485 237L494 237C491.387 235.902 488.836 236.007 486 236L486 214C486 210.017 486.552 205.699 485 202z"/>
<path style="fill:#d2b16b; stroke:none;" d="M486 202L486 236L493 236L493 214C493 211.256 493.727 207.053 491.974 204.703C490.606 202.87 488.056 202.5 486 202z"/>
<path style="fill:#664f38; stroke:none;" d="M488.667 202.333C488.222 202.778 489.278 202.722 489.333 202.667C489.778 202.222 488.722 202.278 488.667 202.333z"/>
<path style="fill:#725d42; stroke:none;" d="M568.667 202.333C568.222 202.778 569.278 202.722 569.333 202.667C569.778 202.222 568.722 202.278 568.667 202.333z"/>
<path style="fill:#ddc27a; stroke:none;" d="M562 211L586 211C582.48 198.572 566.352 200.145 562 211z"/>
<path style="fill:#584435; stroke:none;" d="M578.667 202.333C578.222 202.778 579.278 202.722 579.333 202.667C579.778 202.222 578.722 202.278 578.667 202.333z"/>
<path style="fill:#452c23; stroke:none;" d="M303 203C304.248 203.685 304.548 203.749 306 204C304.752 203.315 304.452 203.251 303 203z"/>
<path style="fill:#a77c44; stroke:none;" d="M306 203C307.507 205.706 307.91 207.913 308 211C309.098 208.387 308.993 205.836 309 203L306 203z"/>
<path style="fill:#63452c; stroke:none;" d="M309 203L309 212C310.256 209.006 310.256 205.994 309 203z"/>
<path style="fill:#5a4432; stroke:none;" d="M491.667 203.333C491.222 203.778 492.278 203.722 492.333 203.667C492.778 203.222 491.722 203.278 491.667 203.333z"/>
<path style="fill:#7e6848; stroke:none;" d="M567 203L568 204L567 203z"/>
<path style="fill:#998357; stroke:none;" d="M580 203L581 204L580 203z"/>
<path style="fill:#5a3d29; stroke:none;" d="M301.667 204.333C301.222 204.778 302.278 204.722 302.333 204.667C302.778 204.222 301.722 204.278 301.667 204.333z"/>
<path style="fill:#bb8c4b; stroke:none;" d="M301 211L308 211L308 204C302.796 204.288 301.174 205.777 301 211z"/>
<path style="fill:#b8995f; stroke:none;" d="M493 204L493 236C495.599 229.806 494 220.686 494 214C494 210.581 494.328 207.166 493 204z"/>
<path style="fill:#675039; stroke:none;" d="M494 204L494 237C496.701 230.564 495 220.951 495 214C495 210.581 495.328 207.166 494 204z"/>
<path style="fill:#231119; stroke:none;" d="M495 204L495 237C497.701 230.564 496 220.951 496 214C496 210.581 496.328 207.166 495 204z"/>
<path style="fill:#554233; stroke:none;" d="M565 204L566 205L565 204z"/>
<path style="fill:#9d8658; stroke:none;" d="M566 204L567 205L566 204z"/>
<path style="fill:#766144; stroke:none;" d="M582 204L583 205L582 204z"/>
<path style="fill:#351e1d; stroke:none;" d="M299 205L299 212C300.059 209.466 300.059 207.534 299 205z"/>
<path style="fill:#835f38; stroke:none;" d="M300 205L300 212L309 212C306.387 210.902 303.835 211.007 301 211C300.953 208.747 300.874 207.052 300 205z"/>
<path style="fill:#604b38; stroke:none;" d="M564 205L565 206L564 205z"/>
<path style="fill:#856f4c; stroke:none;" d="M583 205L584 206L583 205z"/>
<path style="fill:#574334; stroke:none;" d="M563 206L564 207L563 206z"/>
<path style="fill:#7d6748; stroke:none;" d="M584 206L585 207L584 206z"/>
<path style="fill:#6a553e; stroke:none;" d="M585 207L586 208L585 207z"/>
<path style="fill:#a48b5b; stroke:none;" d="M562.333 208.667C562.278 208.722 562.222 209.778 562.667 209.333C562.722 209.278 562.778 208.222 562.333 208.667z"/>
<path style="fill:#816b4a; stroke:none;" d="M586 208L586 212C586.71 210.24 586.71 209.76 586 208z"/>
<path style="fill:#705b41; stroke:none;" d="M561 209L561 212C561.696 210.446 561.696 210.554 561 209z"/>
<path style="fill:#402e29; stroke:none;" d="M587.333 210.667C587.278 210.722 587.222 211.778 587.667 211.333C587.722 211.278 587.778 210.222 587.333 210.667z"/>
<path style="fill:#493125; stroke:none;" d="M340 211C342.613 212.098 345.164 211.993 348 212C345.387 210.902 342.836 211.007 340 211z"/>
<path style="fill:#4b3327; stroke:none;" d="M370 211C373.432 212.44 377.3 212 381 212C377.568 210.56 373.7 211 370 211z"/>
<path style="fill:#4b3428; stroke:none;" d="M388 211C391.163 212.327 394.586 212 398 212C394.837 210.673 391.414 211 388 211z"/>
<path style="fill:#382421; stroke:none;" d="M416 211C417.248 211.685 417.548 211.749 419 212C417.752 211.315 417.452 211.251 416 211z"/>
<path style="fill:#392522; stroke:none;" d="M426.667 211.333C426.222 211.778 427.278 211.722 427.333 211.667C427.778 211.222 426.722 211.278 426.667 211.333z"/>
<path style="fill:#4c362b; stroke:none;" d="M471 212C473.393 212.741 475.493 212.302 478 212C475.477 211.01 473.642 211.383 471 212z"/>
<path style="fill:#503b2f; stroke:none;" d="M513 212C516.161 212.972 519.667 212.068 523 212C519.65 210.597 516.479 211.172 513 212z"/>
<path style="fill:#9f885a; stroke:none;" d="M562 211C568.687 213.806 578.767 212 586 212C579.313 209.194 569.233 211 562 211z"/>
<path style="fill:#534133; stroke:none;" d="M605 211C607.613 212.098 610.164 211.993 613 212C610.387 210.902 607.835 211.007 605 211z"/>
<path style="fill:#3f2e29; stroke:none;" d="M642.667 211.333C642.222 211.778 643.278 211.722 643.333 211.667C643.778 211.222 642.722 211.278 642.667 211.333z"/>
<path style="fill:#41302a; stroke:none;" d="M651 211C652.248 211.685 652.548 211.749 654 212C652.752 211.315 652.452 211.251 651 211z"/>
<path style="fill:#574638; stroke:none;" d="M682 211C687.222 213.191 694.368 212 700 212C694.778 209.809 687.632 211 682 211z"/>
<path style="fill:#584839; stroke:none;" d="M721 211C723.613 212.098 726.164 211.993 729 212C726.387 210.902 723.835 211.007 721 211z"/>
<path style="fill:#5d412d; stroke:none;" d="M338.667 212.333C338.222 212.778 339.278 212.722 339.333 212.667C339.778 212.222 338.722 212.278 338.667 212.333z"/>
<path style="fill:#c09351; stroke:none;" d="M340.001 212.573C332.893 214.613 329.587 224.426 333.179 230.826C336.27 236.333 343.292 237.92 348.999 236.276C356.418 234.14 359.951 223.552 355.397 217.108C352.189 212.571 345.142 211.096 340.001 212.573z"/>
<path style="fill:#60442f; stroke:none;" d="M348.667 212.333C348.222 212.778 349.278 212.722 349.333 212.667C349.778 212.222 348.722 212.278 348.667 212.333z"/>
<path style="fill:#251319; stroke:none;" d="M369 212L369 230C370.952 225.349 370.952 216.651 369 212z"/>
<path style="fill:#6b4e34; stroke:none;" d="M370 212L370 230C371.952 225.349 371.952 216.651 370 212z"/>
<path style="fill:#af894f; stroke:none;" d="M371 212L371 231C373.02 226.187 373.02 216.813 371 212z"/>
<path style="fill:#c49a57; stroke:none;" d="M372 212C372 220.99 368.452 235.159 380 237L380 212L372 212z"/>
<path style="fill:#886840; stroke:none;" d="M380 212C380 218.366 382.795 233.243 377 237C378.506 237.683 379.315 237.826 381 238C381 230.239 383.008 219.169 380 212z"/>
<path style="fill:#382320; stroke:none;" d="M381 212L381 238C383.477 232.097 383.477 217.903 381 212z"/>
<path style="fill:#34201f; stroke:none;" d="M387 212L387 238C389.477 232.097 389.477 217.903 387 212z"/>
<path style="fill:#85653f; stroke:none;" d="M388 212L388 238L392 238C390.752 237.315 390.452 237.251 389 237C389 229.503 390.907 218.928 388 212z"/>
<path style="fill:#c69e5a; stroke:none;" d="M389 212L389 237C400.458 235.454 397 220.649 397 212L389 212z"/>
<path style="fill:#b38e52; stroke:none;" d="M397 212L397 232C399.087 227.027 399.087 216.973 397 212z"/>
<path style="fill:#6d5236; stroke:none;" d="M398 212L398 230C399.952 225.349 399.952 216.651 398 212z"/>
<path style="fill:#29161a; stroke:none;" d="M399 212L399 230C400.952 225.349 400.952 216.651 399 212z"/>
<path style="fill:#51392b; stroke:none;" d="M414.667 212.333C414.222 212.778 415.278 212.722 415.333 212.667C415.778 212.222 414.722 212.278 414.667 212.333z"/>
<path style="fill:#8d6f45; stroke:none;" d="M416 212C419.747 218.738 418 228.481 418 236L410 236C412.89 237.213 415.874 236.998 419 237L419 212L416 212z"/>
<path style="fill:#3b2622; stroke:none;" d="M419 212L419 237C421.413 231.25 421.413 217.75 419 212z"/>
<path style="fill:#34211f; stroke:none;" d="M425 212L425 224C426.512 220.396 426.512 215.604 425 212z"/>
<path style="fill:#866842; stroke:none;" d="M426 212L426 224C427.569 220.261 426.454 216.361 429 213C427.752 212.315 427.452 212.251 426 212z"/>
<path style="fill:#d0ad68; stroke:none;" d="M477 236L477 212C473.472 212.551 469.964 213.514 467.514 216.34C460.405 224.538 467.865 235.171 477 236z"/>
<path style="fill:#a28453; stroke:none;" d="M477 212L477 236L473 236C474.769 236.779 476.036 236.912 478 237C478 229.503 479.907 218.928 477 212z"/>
<path style="fill:#48332a; stroke:none;" d="M478 212L478 237C480.413 231.25 480.413 217.75 478 212z"/>
<path style="fill:#d5b66f; stroke:none;" d="M508 230C511.481 229.401 514.689 228.183 518 226.95C521.297 225.722 528.967 224.432 530.914 221.298C533.557 217.041 526.058 213.263 523 212.534C511.54 209.803 505.642 220.092 508 230z"/>
<path style="fill:#755e42; stroke:none;" d="M523.667 212.333C523.222 212.778 524.278 212.722 524.333 212.667C524.778 212.222 523.722 212.278 523.667 212.333z"/>
<path style="fill:#6b573f; stroke:none;" d="M603.667 212.333C603.222 212.778 604.278 212.722 604.333 212.667C604.778 212.222 603.722 212.278 603.667 212.333z"/>
<path style="fill:#c1aa6e; stroke:none;" d="M605.667 212.333C605.222 212.778 606.278 212.722 606.333 212.667C606.778 212.222 605.722 212.278 605.667 212.333z"/>
<path style="fill:#e1c87f; stroke:none;" d="M607 212.472C590.908 215.395 595.536 239.563 612 236.67C628.207 233.822 623.248 209.522 607 212.472z"/>
<path style="fill:#9f895c; stroke:none;" d="M613 212L614 213L613 212z"/>
<path style="fill:#46332c; stroke:none;" d="M614.667 212.333C614.222 212.778 615.278 212.722 615.333 212.667C615.778 212.222 614.722 212.278 614.667 212.333z"/>
<path style="fill:#514033; stroke:none;" d="M639 212C640.248 212.685 640.548 212.749 642 213C640.752 212.315 640.452 212.251 639 212z"/>
<path style="fill:#b9a46c; stroke:none;" d="M642 212C643.839 219.725 643 228.097 643 236C645.003 231.227 646.036 215.527 642 212z"/>
<path style="fill:#5a4838; stroke:none;" d="M644 212L644 237C646.413 231.25 646.413 217.75 644 212z"/>
<path style="fill:#26151c; stroke:none;" d="M650 212L650 224C651.512 220.396 651.512 215.604 650 212z"/>
<path style="fill:#756348; stroke:none;" d="M651 212L651 224C652.512 220.396 652.512 215.604 651 212z"/>
<path style="fill:#98845a; stroke:none;" d="M652.667 212.333C652.222 212.778 653.278 212.722 653.333 212.667C653.778 212.222 652.722 212.278 652.667 212.333z"/>
<path style="fill:#372625; stroke:none;" d="M654.667 212.333C654.222 212.778 655.278 212.722 655.333 212.667C655.778 212.222 654.722 212.278 654.667 212.333z"/>
<path style="fill:#6b5a43; stroke:none;" d="M680.667 212.333C680.222 212.778 681.278 212.722 681.333 212.667C681.778 212.222 680.722 212.278 680.667 212.333z"/>
<path style="fill:#c8b578; stroke:none;" d="M682.667 212.333C682.222 212.778 683.278 212.722 683.333 212.667C683.778 212.222 682.722 212.278 682.667 212.333z"/>
<path style="fill:#ebd98e; stroke:none;" d="M675 220L699 220L699 212C689.959 212 679.534 210.391 675 220z"/>
<path style="fill:#c0af75; stroke:none;" d="M699 212L699 220C700.161 217.23 700.161 214.77 699 212z"/>
<path style="fill:#60503d; stroke:none;" d="M700 212L700 221C701.256 218.006 701.256 214.994 700 212z"/>
<path style="fill:#7b6b4e; stroke:none;" d="M719.667 212.333C719.222 212.778 720.278 212.722 720.333 212.667C720.778 212.222 719.722 212.278 719.667 212.333z"/>
<path style="fill:#eede92; stroke:none;" d="M713 230C719.083 228.953 725.175 226.408 730.995 224.329C733.101 223.576 736.364 222.655 736.364 219.87C736.364 212.211 724.026 210.853 719.018 213.457C712.525 216.833 713.001 223.694 713 230z"/>
<path style="fill:#9b8b61; stroke:none;" d="M729 212L730 213L729 212z"/>
<path style="fill:#40312c; stroke:none;" d="M730.667 212.333C730.222 212.778 731.278 212.722 731.333 212.667C731.778 212.222 730.722 212.278 730.667 212.333z"/>
<path style="fill:#3d2721; stroke:none;" d="M351.667 213.333C351.222 213.778 352.278 213.722 352.333 213.667C352.778 213.222 351.722 213.278 351.667 213.333z"/>
<path style="fill:#4d362a; stroke:none;" d="M411 213C412.248 213.685 412.549 213.749 414 214C412.752 213.315 412.452 213.251 411 213z"/>
<path style="fill:#c9a25e; stroke:none;" d="M411 236L418 236L418 213C407.609 214.171 411 228.127 411 236z"/>
<path style="fill:#cba560; stroke:none;" d="M427 213L427 223L435 223C434.814 217.268 432.77 214.168 427 213z"/>
<path style="fill:#785d3c; stroke:none;" d="M430 213L431 214L430 213z"/>
<path style="fill:#614935; stroke:none;" d="M470 213L471 214L470 213z"/>
<path style="fill:#604a36; stroke:none;" d="M512 213L513 214L512 213z"/>
<path style="fill:#8a704b; stroke:none;" d="M526 213L527 214L526 213z"/>
<path style="fill:#786447; stroke:none;" d="M602 213L603 214L602 213z"/>
<path style="fill:#7e6a4a; stroke:none;" d="M616 213L617 214L616 213z"/>
<path style="fill:#4d3c31; stroke:none;" d="M636 213C637.248 213.685 637.548 213.749 639 214C637.752 213.315 637.452 213.251 636 213z"/>
<path style="fill:#e4ce84; stroke:none;" d="M636 214L636 236L643 236L643 213L636 214z"/>
<path style="fill:#d1bd7b; stroke:none;" d="M652 213L652 223C653.346 219.793 653.346 216.207 652 213z"/>
<path style="fill:#e6d187; stroke:none;" d="M653 213L653 223L661 223C660.169 217.775 658.073 214.744 653 213z"/>
<path style="fill:#9d8a5e; stroke:none;" d="M655 213L656 214L655 213z"/>
<path style="fill:#715f46; stroke:none;" d="M679 213L680 214L679 213z"/>
<path style="fill:#4f3e34; stroke:none;" d="M717 213L718 214L717 213z"/>
<path style="fill:#8e7d59; stroke:none;" d="M718 213L719 214L718 213z"/>
<path style="fill:#b8a972; stroke:none;" d="M731 213L732 214L731 213z"/>
<path style="fill:#736349; stroke:none;" d="M732 213L733 214L732 213z"/>
<path style="fill:#4f3527; stroke:none;" d="M335 214L336 215L335 214z"/>
<path style="fill:#b28e54; stroke:none;" d="M410 214L410 236C412.763 229.416 410.321 221.051 412 214L410 214z"/>
<path style="fill:#836944; stroke:none;" d="M469 214L470 215L469 214z"/>
<path style="fill:#856b48; stroke:none;" d="M511 214L512 215L511 214z"/>
<path style="fill:#6c553d; stroke:none;" d="M528 214L529 215L528 214z"/>
<path style="fill:#5b4837; stroke:none;" d="M600 214L601 215L600 214z"/>
<path style="fill:#aa9462; stroke:none;" d="M617 214L618 215L617 214z"/>
<path style="fill:#5f4d3a; stroke:none;" d="M618 214L619 215L618 214z"/>
<path style="fill:#5f4d3b; stroke:none;" d="M635 214L636 215L635 214z"/>
<path style="fill:#6f5e44; stroke:none;" d="M657 214L658 215L657 214z"/>
<path style="fill:#4d3d33; stroke:none;" d="M677 214L678 215L677 214z"/>
<path style="fill:#99865d; stroke:none;" d="M678 214L679 215L678 214z"/>
<path style="fill:#6e5e46; stroke:none;" d="M716 214L717 215L716 214z"/>
<path style="fill:#9d8e63; stroke:none;" d="M733 214L734 215L733 214z"/>
<path style="fill:#593d2b; stroke:none;" d="M334 215L335 216L334 215z"/>
<path style="fill:#5d412d; stroke:none;" d="M354 215L355 216L354 215z"/>
<path style="fill:#251319; stroke:none;" d="M408 215L408 237C410.219 231.713 410.219 220.287 408 215z"/>
<path style="fill:#6b4f36; stroke:none;" d="M409 215L409 237C411.219 231.713 411.219 220.287 409 215z"/>
<path style="fill:#93794f; stroke:none;" d="M510 215L511 216L510 215z"/>
<path style="fill:#796143; stroke:none;" d="M529 215L530 216L529 215z"/>
<path style="fill:#67543d; stroke:none;" d="M599 215L600 216L599 215z"/>
<path style="fill:#6d5941; stroke:none;" d="M619 215L620 216L619 215z"/>
<path style="fill:#200f18; stroke:none;" d="M633 215L633 237C635.219 231.713 635.219 220.287 633 215z"/>
<path style="fill:#594737; stroke:none;" d="M634 215L634 237C636.219 231.713 636.219 220.287 634 215z"/>
<path style="fill:#b5a06a; stroke:none;" d="M635 215L635 236C637.153 230.869 637.153 220.131 635 215z"/>
<path style="fill:#766448; stroke:none;" d="M658 215L659 216L658 215z"/>
<path style="fill:#584738; stroke:none;" d="M676 215L677 216L676 215z"/>
<path style="fill:#ab9967; stroke:none;" d="M677 215L678 216L677 215z"/>
<path style="fill:#7b6b4e; stroke:none;" d="M715 215L716 216L715 215z"/>
<path style="fill:#ae9f6e; stroke:none;" d="M734 215L735 216L734 215z"/>
<path style="fill:#57483a; stroke:none;" d="M735 215L736 216L735 215z"/>
<path style="fill:#573b2a; stroke:none;" d="M333 216L334 217L333 216z"/>
<path style="fill:#8d734c; stroke:none;" d="M509 216L510 217L509 216z"/>
<path style="fill:#765e41; stroke:none;" d="M530 216L531 217L530 216z"/>
<path style="fill:#64503c; stroke:none;" d="M598 216L599 217L598 216z"/>
<path style="fill:#64513d; stroke:none;" d="M620 216L621 217L620 216z"/>
<path style="fill:#695641; stroke:none;" d="M659 216L660 217L659 216z"/>
<path style="fill:#534235; stroke:none;" d="M675 216L676 217L675 216z"/>
<path style="fill:#ab9867; stroke:none;" d="M676 216L677 217L676 216z"/>
<path style="fill:#726248; stroke:none;" d="M714 216L715 217L714 216z"/>
<path style="fill:#ae9e6d; stroke:none;" d="M735 216L736 217L735 216z"/>
<path style="fill:#534237; stroke:none;" d="M736 216L737 217L736 216z"/>
<path style="fill:#ac905a; stroke:none;" d="M508.333 217.667C508.278 217.722 508.222 218.778 508.667 218.333C508.722 218.278 508.778 217.222 508.333 217.667z"/>
<path style="fill:#614b38; stroke:none;" d="M531 217L532 218L531 217z"/>
<path style="fill:#503d31; stroke:none;" d="M597 217L598 218L597 217z"/>
<path style="fill:#524033; stroke:none;" d="M621 217L622 218L621 217z"/>
<path style="fill:#534235; stroke:none;" d="M660 217L661 218L660 217z"/>
<path style="fill:#938159; stroke:none;" d="M675 217L676 218L675 217z"/>
<path style="fill:#5e4d3c; stroke:none;" d="M713 217L714 218L713 217z"/>
<path style="fill:#998a61; stroke:none;" d="M736 217L737 218L736 217z"/>
<path style="fill:#452d23; stroke:none;" d="M300 218C305.726 220.403 312.867 218.54 319 220C315.486 215.978 305.091 218 300 218z"/>
<path style="fill:#997242; stroke:none;" d="M332.333 218.667C332.278 218.722 332.222 219.778 332.667 219.333C332.722 219.278 332.778 218.222 332.333 218.667z"/>
<path style="fill:#866944; stroke:none;" d="M435.333 218.667C435.278 218.722 435.222 219.778 435.667 219.333C435.722 219.278 435.778 218.222 435.333 218.667z"/>
<path style="fill:#866a45; stroke:none;" d="M465.333 218.667C465.278 218.722 465.222 219.778 465.667 219.333C465.722 219.278 465.778 218.222 465.333 218.667z"/>
<path style="fill:#846b47; stroke:none;" d="M507.333 218.667C507.278 218.722 507.222 219.778 507.667 219.333C507.722 219.278 507.778 218.222 507.333 218.667z"/>
<path style="fill:#66503a; stroke:none;" d="M532.333 218.667C532.278 218.722 532.222 219.778 532.667 219.333C532.722 219.278 532.778 218.222 532.333 218.667z"/>
<path style="fill:#4e3b2f; stroke:none;" d="M561 218C566.726 220.403 573.867 218.54 580 220C576.486 215.978 566.091 218 561 218z"/>
<path style="fill:#b19964; stroke:none;" d="M597.333 218.667C597.278 218.722 597.222 219.778 597.667 219.333C597.722 219.278 597.778 218.222 597.333 218.667z"/>
<path style="fill:#b6a06a; stroke:none;" d="M621.333 218.667C621.278 218.722 621.222 219.778 621.667 219.333C621.722 219.278 621.778 218.222 621.333 218.667z"/>
<path style="fill:#b29f6a; stroke:none;" d="M660.333 218.667C660.278 218.722 660.222 219.778 660.667 219.333C660.722 219.278 660.778 218.222 660.333 218.667z"/>
<path style="fill:#a99767; stroke:none;" d="M674 218C674.797 221.72 677.61 221 681 221L700 221C691.845 217.578 682.028 222.465 674 218z"/>
<path style="fill:#655541; stroke:none;" d="M712.333 218.667C712.278 218.722 712.222 219.778 712.667 219.333C712.722 219.278 712.778 218.222 712.333 218.667z"/>
<path style="fill:#c5b479; stroke:none;" d="M713.333 218.667C713.278 218.722 713.222 219.778 713.667 219.333C713.722 219.278 713.778 218.222 713.333 218.667z"/>
<path style="fill:#716148; stroke:none;" d="M737 218L738 219L737 218z"/>
<path style="fill:#351e1d; stroke:none;" d="M299 219L299 236C300.883 231.514 300.883 223.486 299 219z"/>
<path style="fill:#835f38; stroke:none;" d="M300 219C300 223.767 298.214 232.691 302 236C300.687 230.484 302.161 224.15 300 219z"/>
<path style="fill:#bb8c4b; stroke:none;" d="M301 219L301 235C307.561 231.259 313.672 225.144 318 219L301 219z"/>
<path style="fill:#6f5033; stroke:none;" d="M331.333 219.667C331.278 219.722 331.222 220.778 331.667 220.333C331.722 220.278 331.778 219.222 331.333 219.667z"/>
<path style="fill:#735536; stroke:none;" d="M357.333 219.667C357.278 219.722 357.222 220.778 357.667 220.333C357.722 220.278 357.778 219.222 357.333 219.667z"/>
<path style="fill:#4d362a; stroke:none;" d="M436.333 219.667C436.278 219.722 436.222 220.778 436.667 220.333C436.722 220.278 436.778 219.222 436.333 219.667z"/>
<path style="fill:#513b2e; stroke:none;" d="M464.333 219.667C464.278 219.722 464.222 220.778 464.667 220.333C464.722 220.278 464.778 219.222 464.333 219.667z"/>
<path style="fill:#503b2e; stroke:none;" d="M506.333 219.667C506.278 219.722 506.222 220.778 506.667 220.333C506.722 220.278 506.778 219.222 506.333 219.667z"/>
<path style="fill:#3d2b27; stroke:none;" d="M560 219L560 236C561.883 231.514 561.883 223.486 560 219z"/>
<path style="fill:#957d53; stroke:none;" d="M561 219C561 223.767 559.214 232.692 563 236C561.687 230.484 563.161 224.15 561 219z"/>
<path style="fill:#dbc077; stroke:none;" d="M562 219L562 235C568.038 230.746 574.683 225.002 579 219L562 219z"/>
<path style="fill:#7c6849; stroke:none;" d="M596.333 219.667C596.278 219.722 596.222 220.778 596.667 220.333C596.722 220.278 596.778 219.222 596.333 219.667z"/>
<path style="fill:#86724f; stroke:none;" d="M622.333 219.667C622.278 219.722 622.222 220.778 622.667 220.333C622.722 220.278 622.778 219.222 622.333 219.667z"/>
<path style="fill:#756449; stroke:none;" d="M661.333 219.667C661.278 219.722 661.222 220.778 661.667 220.333C661.722 220.278 661.778 219.222 661.333 219.667z"/>
<path style="fill:#44332c; stroke:none;" d="M673.333 219.667C673.278 219.722 673.222 220.778 673.667 220.333C673.722 220.278 673.778 219.222 673.333 219.667z"/>
<path style="fill:#c3b47a; stroke:none;" d="M737 219L737 222C737.696 220.446 737.696 220.554 737 219z"/>
<path style="fill:#635440; stroke:none;" d="M738 219L738 223C738.71 221.24 738.71 220.76 738 219z"/>
<path style="fill:#62432d; stroke:none;" d="M317 220L318 221L317 220z"/>
<path style="fill:#543829; stroke:none;" d="M330 220L330 227C331.059 224.466 331.059 222.534 330 220z"/>
<path style="fill:#553b2b; stroke:none;" d="M358 220L358 227C359.059 224.466 359.059 222.534 358 220z"/>
<path style="fill:#9d7d4d; stroke:none;" d="M435 220C432.998 223.089 430.536 222.959 427 223C429.89 224.213 432.874 223.998 436 224C435.826 222.315 435.683 221.506 435 220z"/>
<path style="fill:#33201f; stroke:none;" d="M463 220L463 226C463.951 223.715 463.951 222.285 463 220z"/>
<path style="fill:#9b8154; stroke:none;" d="M532 220C531.455 221.635 531.635 221.455 530 222C532.034 222.785 532.785 222.033 532 220z"/>
<path style="fill:#443029; stroke:none;" d="M533 220L533 223C533.696 221.446 533.696 221.554 533 220z"/>
<path style="fill:#705c41; stroke:none;" d="M578 220L579 221L578 220z"/>
<path style="fill:#42302a; stroke:none;" d="M595.333 220.667C595.278 220.722 595.222 221.778 595.667 221.333C595.722 221.278 595.778 220.222 595.333 220.667z"/>
<path style="fill:#45332c; stroke:none;" d="M623.333 220.667C623.278 220.722 623.222 221.778 623.667 221.333C623.722 221.278 623.778 220.222 623.333 220.667z"/>
<path style="fill:#47372f; stroke:none;" d="M711.333 220.667C711.278 220.722 711.222 221.778 711.667 221.333C711.722 221.278 711.778 220.222 711.333 220.667z"/>
<path style="fill:#a59567; stroke:none;" d="M712.333 220.667C712.278 220.722 712.222 221.778 712.667 221.333C712.722 221.278 712.778 220.222 712.333 220.667z"/>
<path style="fill:#5e412c; stroke:none;" d="M316 221L317 222L316 221z"/>
<path style="fill:#a57c46; stroke:none;" d="M331 221L331 229C332.161 226.23 332.161 223.77 331 221z"/>
<path style="fill:#a67f49; stroke:none;" d="M357 221L357 228C358.059 225.466 358.059 223.534 357 221z"/>
<path style="fill:#71563a; stroke:none;" d="M436 221L436 224C436.696 222.446 436.696 222.554 436 221z"/>
<path style="fill:#866a45; stroke:none;" d="M464 221L464 226C464.83 223.97 464.83 223.03 464 221z"/>
<path style="fill:#745d40; stroke:none;" d="M506 221C506.008 224.169 506.1 226.959 507 230C507.717 227.012 507.217 223.821 506 221z"/>
<path style="fill:#6d5740; stroke:none;" d="M577 221L578 222L577 221z"/>
<path style="fill:#c1a96d; stroke:none;" d="M596 221L596 226C596.83 223.97 596.83 223.03 596 221z"/>
<path style="fill:#c0aa6f; stroke:none;" d="M622 221L622 228C623.06 225.466 623.059 223.534 622 221z"/>
<path style="fill:#b29f6b; stroke:none;" d="M661 221C658.196 223.125 655.467 222.989 652 223C654.35 224.135 662.676 225.445 661 221z"/>
<path style="fill:#402f2a; stroke:none;" d="M662 221L662 224C662.696 222.446 662.696 222.554 662 221z"/>
<path style="fill:#5c3f2b; stroke:none;" d="M315 222L316 223L315 222z"/>
<path style="fill:#69543d; stroke:none;" d="M576 222L577 223L576 222z"/>
<path style="fill:#65513c; stroke:none;" d="M595 222L595 227C595.83 224.97 595.83 224.03 595 222z"/>
<path style="fill:#67543f; stroke:none;" d="M623 222L623 227C623.83 224.97 623.83 224.03 623 222z"/>
<path style="fill:#665541; stroke:none;" d="M711 222L711 226C711.71 224.24 711.71 223.76 711 222z"/>
<path style="fill:#c8b77b; stroke:none;" d="M712 222L712 227C712.83 224.97 712.83 224.03 712 222z"/>
<path style="fill:#96855f; stroke:none;" d="M736.667 222.333C736.222 222.778 737.278 222.722 737.333 222.667C737.778 222.222 736.722 222.278 736.667 222.333z"/>
<path style="fill:#a08656; stroke:none;" d="M527 223C528.248 223.685 528.548 223.749 530 224C528.752 223.315 528.452 223.251 527 223z"/>
<path style="fill:#66513c; stroke:none;" d="M575 223L576 224L575 223z"/>
<path style="fill:#a09165; stroke:none;" d="M733 223C734.248 223.685 734.548 223.749 736 224C734.752 223.315 734.452 223.251 733 223z"/>
<path style="fill:#2d1a1d; stroke:none;" d="M426 224C429.163 225.327 432.586 225 436 225C432.837 223.673 429.414 224 426 224z"/>
<path style="fill:#a18757; stroke:none;" d="M524 224C525.248 224.685 525.548 224.749 527 225C525.752 224.315 525.452 224.251 524 224z"/>
<path style="fill:#624e3a; stroke:none;" d="M574 224L575 225L574 224z"/>
<path style="fill:#302022; stroke:none;" d="M652 224C655.163 225.327 658.586 225 662 225C658.837 223.673 655.414 224 652 224z"/>
<path style="fill:#a39366; stroke:none;" d="M730 224C731.248 224.685 731.548 224.749 733 225C731.752 224.315 731.452 224.251 730 224z"/>
<path style="fill:#89704a; stroke:none;" d="M519 226C520.943 226.622 521.949 226.436 524 226C522.057 225.378 521.051 225.564 519 226z"/>
<path style="fill:#a8905e; stroke:none;" d="M572 225L573 226L572 225z"/>
<path style="fill:#5d4938; stroke:none;" d="M573 225L574 226L573 225z"/>
<path style="fill:#a59668; stroke:none;" d="M727 225C728.248 225.685 728.549 225.749 730 226C728.752 225.315 728.452 225.251 727 225z"/>
<path style="fill:#5d4533; stroke:none;" d="M464.333 226.667C464.278 226.722 464.222 227.778 464.667 227.333C464.722 227.278 464.778 226.222 464.333 226.667z"/>
<path style="fill:#a58d5c; stroke:none;" d="M571 226L572 227L571 226z"/>
<path style="fill:#584435; stroke:none;" d="M572 226L573 227L572 226z"/>
<path style="fill:#a38d5e; stroke:none;" d="M596 226L596 229C596.696 227.446 596.696 227.554 596 226z"/>
<path style="fill:#42322d; stroke:none;" d="M711.333 226.667C711.278 226.722 711.222 227.778 711.667 227.333C711.722 227.278 711.778 226.222 711.333 226.667z"/>
<path style="fill:#a89869; stroke:none;" d="M724 226C725.248 226.685 725.548 226.749 727 227C725.751 226.315 725.452 226.251 724 226z"/>
<path style="fill:#8c724b; stroke:none;" d="M516 227C517.248 227.685 517.548 227.749 519 228C517.752 227.315 517.452 227.251 516 227z"/>
<path style="fill:#a1895a; stroke:none;" d="M570 227L571 228L570 227z"/>
<path style="fill:#544133; stroke:none;" d="M571 227L572 228L571 227z"/>
<path style="fill:#382725; stroke:none;" d="M623.333 227.667C623.278 227.722 623.222 228.778 623.667 228.333C623.722 228.278 623.778 227.222 623.333 227.667z"/>
<path style="fill:#574638; stroke:none;" d="M674 227C681.169 230.008 692.239 228 700 228C692.831 224.992 681.761 227 674 227z"/>
<path style="fill:#7e6e50; stroke:none;" d="M712 227L712 230C712.696 228.446 712.696 228.554 712 227z"/>
<path style="fill:#aa996a; stroke:none;" d="M721 227C722.248 227.685 722.548 227.749 724 228C722.752 227.315 722.452 227.251 721 227z"/>
<path style="fill:#5f442e; stroke:none;" d="M357.333 228.667C357.278 228.722 357.222 229.778 357.667 229.333C357.722 229.278 357.778 228.222 357.333 228.667z"/>
<path style="fill:#6e553a; stroke:none;" d="M465.333 228.667C465.278 228.722 465.222 229.778 465.667 229.333C465.722 229.278 465.778 228.222 465.333 228.667z"/>
<path style="fill:#8e744c; stroke:none;" d="M513 228C514.248 228.685 514.548 228.749 516 229C514.752 228.315 514.452 228.251 513 228z"/>
<path style="fill:#9f8758; stroke:none;" d="M569 228L570 229L569 228z"/>
<path style="fill:#513d30; stroke:none;" d="M570 228L571 229L570 228z"/>
<path style="fill:#705c43; stroke:none;" d="M622.333 228.667C622.278 228.722 622.222 229.778 622.667 229.333C622.722 229.278 622.778 228.222 622.333 228.667z"/>
<path style="fill:#7c6a4c; stroke:none;" d="M674.333 228.667C674.278 228.722 674.222 229.778 674.667 229.333C674.722 229.278 674.778 228.222 674.333 228.667z"/>
<path style="fill:#ebd98e; stroke:none;" d="M675 228C678.499 238.173 690.228 236 699 236L699 228L675 228z"/>
<path style="fill:#c0af75; stroke:none;" d="M699 228L699 236C700.161 233.23 700.161 230.77 699 228z"/>
<path style="fill:#60503d; stroke:none;" d="M700 228L700 237C701.256 234.006 701.256 230.994 700 228z"/>
<path style="fill:#ac9c6b; stroke:none;" d="M718 228C719.248 228.685 719.549 228.749 721 229C719.752 228.315 719.452 228.251 718 228z"/>
<path style="fill:#38231f; stroke:none;" d="M331.333 229.667C331.278 229.722 331.222 230.778 331.667 230.333C331.722 230.278 331.778 229.222 331.333 229.667z"/>
<path style="fill:#6a543b; stroke:none;" d="M511.667 229.333C511.222 229.778 512.278 229.722 512.333 229.667C512.778 229.222 511.722 229.278 511.667 229.333z"/>
<path style="fill:#9c8458; stroke:none;" d="M568 229L569 230L568 229z"/>
<path style="fill:#4e3b2f; stroke:none;" d="M569 229L570 230L569 229z"/>
<path style="fill:#42302a; stroke:none;" d="M596.333 229.667C596.278 229.722 596.222 230.778 596.667 230.333C596.722 230.278 596.778 229.222 596.333 229.667z"/>
<path style="fill:#8c7c58; stroke:none;" d="M716.667 229.333C716.222 229.778 717.278 229.722 717.333 229.667C717.778 229.222 716.722 229.278 716.667 229.333z"/>
<path style="fill:#5a493a; stroke:none;" d="M718 229L719 230L718 229z"/>
<path style="fill:#593d2b; stroke:none;" d="M332.333 230.667C332.278 230.722 332.222 231.778 332.667 231.333C332.722 231.278 332.778 230.222 332.333 230.667z"/>
<path style="fill:#5b402c; stroke:none;" d="M356.333 230.667C356.278 230.722 356.222 231.778 356.667 231.333C356.722 231.278 356.778 230.222 356.333 230.667z"/>
<path style="fill:#3d2722; stroke:none;" d="M370.333 230.667C370.278 230.722 370.222 231.778 370.667 231.333C370.722 231.278 370.778 230.222 370.333 230.667z"/>
<path style="fill:#402a23; stroke:none;" d="M398.333 230.667C398.278 230.722 398.222 231.778 398.667 231.333C398.722 231.278 398.778 230.222 398.333 230.667z"/>
<path style="fill:#2c1a1c; stroke:none;" d="M465 230C465.684 231.58 465.805 231.777 467 233C466.316 231.42 466.195 231.223 465 230z"/>
<path style="fill:#91744a; stroke:none;" d="M466 230L467 231L466 230z"/>
<path style="fill:#6e563d; stroke:none;" d="M508.667 230.333C508.222 230.778 509.278 230.722 509.333 230.667C509.778 230.222 508.722 230.278 508.667 230.333z"/>
<path style="fill:#988155; stroke:none;" d="M567 230L568 231L567 230z"/>
<path style="fill:#988257; stroke:none;" d="M597 230L598 231L597 230z"/>
<path style="fill:#9e895c; stroke:none;" d="M621 230L622 231L621 230z"/>
<path style="fill:#a49264; stroke:none;" d="M675 230L676 231L675 230z"/>
<path style="fill:#867654; stroke:none;" d="M713 230C714.248 230.685 714.548 230.749 716 231C714.752 230.315 714.452 230.251 713 230z"/>
<path style="fill:#845f38; stroke:none;" d="M305 231L306 232L305 231z"/>
<path style="fill:#6a4e33; stroke:none;" d="M371.333 231.667C371.278 231.722 371.222 232.778 371.667 232.333C371.722 232.278 371.778 231.222 371.333 231.667z"/>
<path style="fill:#957d54; stroke:none;" d="M566 231L567 232L566 231z"/>
<path style="fill:#65523d; stroke:none;" d="M597 231L598 232L597 231z"/>
<path style="fill:#695540; stroke:none;" d="M621 231L622 232L621 231z"/>
<path style="fill:#62513e; stroke:none;" d="M675 231L676 232L675 231z"/>
<path style="fill:#815c36; stroke:none;" d="M304 232L305 233L304 232z"/>
<path style="fill:#6f5032; stroke:none;" d="M333 232L334 233L333 232z"/>
<path style="fill:#705135; stroke:none;" d="M355 232L356 233L355 232z"/>
<path style="fill:#3e2923; stroke:none;" d="M397.333 232.667C397.278 232.722 397.222 233.778 397.667 233.333C397.722 233.278 397.778 232.222 397.333 232.667z"/>
<path style="fill:#6d543a; stroke:none;" d="M467 232L468 233L467 232z"/>
<path style="fill:#927b52; stroke:none;" d="M565 232L566 233L565 232z"/>
<path style="fill:#7f6a4b; stroke:none;" d="M598 232L599 233L598 232z"/>
<path style="fill:#826e4d; stroke:none;" d="M620 232L621 233L620 232z"/>
<path style="fill:#6f5e45; stroke:none;" d="M676 232L677 233L676 232z"/>
<path style="fill:#a57d47; stroke:none;" d="M334 233C335.45 234.608 336.051 235.064 338 236C336.55 234.392 335.949 233.936 334 233z"/>
<path style="fill:#7a5a38; stroke:none;" d="M354 233L355 234L354 233z"/>
<path style="fill:#8a6b42; stroke:none;" d="M396 233L397 234L396 233z"/>
<path style="fill:#674f37; stroke:none;" d="M468 233L469 234L468 233z"/>
<path style="fill:#907851; stroke:none;" d="M564 233L565 234L564 233z"/>
<path style="fill:#8a7550; stroke:none;" d="M599 233L600 234L599 233z"/>
<path style="fill:#8d7953; stroke:none;" d="M619 233L620 234L619 233z"/>
<path style="fill:#6f5e45; stroke:none;" d="M677 233L678 234L677 233z"/>
<path style="fill:#7c5935; stroke:none;" d="M302 234L303 235L302 234z"/>
<path style="fill:#775837; stroke:none;" d="M353 234L354 235L353 234z"/>
<path style="fill:#533d2f; stroke:none;" d="M469 234L470 235L469 234z"/>
<path style="fill:#8c754f; stroke:none;" d="M563 234L564 235L563 234z"/>
<path style="fill:#836e4c; stroke:none;" d="M600 234L601 235L600 234z"/>
<path style="fill:#897551; stroke:none;" d="M618 234L619 235L618 234z"/>
<path style="fill:#594839; stroke:none;" d="M678 234L679 235L678 234z"/>
<path style="fill:#63472f; stroke:none;" d="M352 235L353 236L352 235z"/>
<path style="fill:#8b6b43; stroke:none;" d="M394 235L395 236L394 235z"/>
<path style="fill:#96784c; stroke:none;" d="M471.667 235.333C471.222 235.778 472.278 235.722 472.333 235.667C472.778 235.222 471.722 235.278 471.667 235.333z"/>
<path style="fill:#6a563f; stroke:none;" d="M601 235L602 236L601 235z"/>
<path style="fill:#ac9663; stroke:none;" d="M616 235L617 236L616 235z"/>
<path style="fill:#705d43; stroke:none;" d="M617 235L618 236L617 235z"/>
<path style="fill:#705e46; stroke:none;" d="M680 235L681 236L680 235z"/>
<path style="fill:#c2af75; stroke:none;" d="M681.667 235.333C681.222 235.778 682.278 235.722 682.333 235.667C682.778 235.222 681.722 235.278 681.667 235.333z"/>
<path style="fill:#8f6a3f; stroke:none;" d="M338.667 236.333C338.222 236.778 339.278 236.722 339.333 236.667C339.778 236.222 338.722 236.278 338.667 236.333z"/>
<path style="fill:#916d41; stroke:none;" d="M348 236C349.248 236.685 349.548 236.749 351 237C349.752 236.315 349.452 236.251 348 236z"/>
<path style="fill:#997446; stroke:none;" d="M375.667 236.333C375.222 236.778 376.278 236.722 376.333 236.667C376.778 236.222 375.722 236.278 375.667 236.333z"/>
<path style="fill:#705337; stroke:none;" d="M393 236L394 237L393 236z"/>
<path style="fill:#a7905f; stroke:none;" d="M603.667 236.333C603.222 236.778 604.278 236.722 604.333 236.667C604.778 236.222 603.722 236.278 603.667 236.333z"/>
<path style="fill:#a89261; stroke:none;" d="M613 236C614.248 236.685 614.548 236.749 616 237C614.752 236.315 614.452 236.251 613 236z"/>
<path style="fill:#a59161; stroke:none;" d="M635 236C637.89 237.213 640.874 236.998 644 237C641.11 235.787 638.126 236.002 635 236z"/>
<path style="fill:#7e6c4f; stroke:none;" d="M682.667 236.333C682.222 236.778 683.278 236.722 683.333 236.667C683.778 236.222 682.722 236.278 682.667 236.333z"/>
<path style="fill:#a99867; stroke:none;" d="M684 236C688.724 237.982 694.91 237 700 237C695.276 235.018 689.09 236 684 236z"/>
<path style="fill:#8a673d; stroke:none;" d="M340 237C342.613 238.098 345.164 237.993 348 238C345.387 236.902 342.836 237.007 340 237z"/>
<path style="fill:#836e4d; stroke:none;" d="M605.667 237.333C605.222 237.778 606.278 237.722 606.333 237.667C606.778 237.222 605.722 237.278 605.667 237.333z"/>
<path style="fill:#a08a5d; stroke:none;" d="M607 237C609.052 237.874 610.747 237.953 613 238C610.948 237.126 609.253 237.047 607 237z"/>
<path style="fill:#322121; stroke:none;" d="M613.667 237.333C613.222 237.778 614.278 237.722 614.333 237.667C614.778 237.222 613.722 237.278 613.667 237.333z"/>
</svg>
